# xmcd
#
# Track frame offsets: 
#        150
#        23067
#        35182
#        62580
#        79265
#        97140
#        109785
#        132900
#        166310
#        180320
#
# Disc length: 2632 seconds
#
# Revision: 0
# Processed by: cddbd v1.5.2PL0 Copyright (c) Steve Scherf et al.
# Submitted via: ExactAudioCopy v1.1
#
DISCID=800a460a
DTITLE=Chen Min (陳敏-胡弓) , 鶴田睦夫 (コンピュータプログラミング) , 土井一郎 (ピアノ) , 桜井郁夫 (ベー
DTITLE=ス) , 久米雅之 (ドラム) , 蘇宇虹 (中国筝) , 盧佳文 (陽琴) 他 - Song of the Bird
DYEAR=1998
DGENRE=Kokyu
TTITLE0=ブラックバード
TTITLE1=翼
TTITLE2=寒鴨戯水
TTITLE3=飛向未来
TTITLE4=空山鳥語
TTITLE5=白鳥 (動物の謝肉祭より)
TTITLE6=我原做一只小燕
TTITLE7=孔雀飛舞
TTITLE8=鳥の歌
TTITLE9=ブラックバード・リプライズド
EXTD=
EXTT0=
EXTT1=
EXTT2=
EXTT3=
EXTT4=
EXTT5=
EXTT6=
EXTT7=
EXTT8=
EXTT9=
PLAYORDER=
